{"title":"Republic of Telly S03E01 [RTE Ireland] HDTV 1080i x264 DeViL303","uid":8219815,"size":645349850,"categoryP":"video","categoryS":"hd___tv_shows","magnet":"?xt=urn:btih:56ffa13bfeadbd3a39321808ea6cb89fdd7c9671&amp;dn=Republic+of+Telly+S03E01+%5BRTE+Ireland%5D+HDTV+1080i+x264+DeViL303&amp;tr=udp%3A%2F%2Ftracker.openbittorrent.com%3A80&amp;tr=udp%3A%2F%2Fopen.demonii.com%3A1337&amp;tr=udp%3A%2F%2Ftracker.coppersurfer.tk%3A6969&amp;tr=udp%3A%2F%2Fexodus.desync.com%3A6969","seeders":1,"leechers":0,"uploader":"DeViL303","files":-1,"time":1362446785,"description":"Republic of Telly S03E01 [RTE Ireland] HDTV 1080i x264 AC3 DeViL303\n\nNew series 2013. Episode one of the Topical comedy show, featuring unusual guest appearances on popular programmes, presented by Dermot Whelan, Jennifer Maguire and Bernard O'Shea.\n\nFile info:\nComplete name                            : C:UsersDeViL303DocumentsRepublic of Telly S03E01 [RTE Ireland] HDTV 1080i x264 AC3 DeViL303Republic of Telly S03E01 [RTE Ireland] HDTV 1080i x264 AC3 DeViL303.mkv\nFormat                                   : Matroska\nFormat version                           : Version 1\nFile size                                : 615 MiB\nDuration                                 : 26mn 6s\nOverall bit rate mode                    : Variable\nOverall bit rate                         : 3 295 Kbps\nEncoded date                             : UTC 2013-03-05 00:14:14\nWriting application                      : mkvmerge v2.5.3 ('Boogie') built on Mar  7 2009 15:00:41\nWriting library                          : libebml v0.7.7 + libmatroska v0.8.1\n\nVideo\nID                                       : 1\nFormat                                   : AVC\nFormat/Info                              : Advanced Video Codec\nFormat profile                           : &lt;a class=&quot;__cf_email__&quot; href=&quot;/cdn-cgi/l/email-protection&quot; data-cfemail=&quot;8bc3e2ece3cbc7bfa5ba&quot;&gt;[email&amp;#160;protected]&lt;/a&gt;&lt;script cf-hash='f9e31' type=&quot;text/javascript&quot;&gt;\n/* &lt;![CDATA[ */!function(){try{var t=&quot;currentScript&quot;in document?document.currentScript:function(){for(var t=document.getElementsByTagName(&quot;script&quot;),e=t.length;e--;)if(t[e].getAttribute(&quot;cf-hash&quot;))return t[e]}();if(t&amp;&amp;t.previousSibling){var e,r,n,i,c=t.previousSibling,a=c.getAttribute(&quot;data-cfemail&quot;);if(a){for(e=&quot;&quot;,r=parseInt(a.substr(0,2),16),n=2;a.length-n;n+=2)i=parseInt(a.substr(n,2),16)^r,e+=String.fromCharCode(i);e=document.createTextNode(e),c.parentNode.replaceChild(e,c)}}}catch(u){}}();/* ]]&gt; */&lt;/script&gt;\nFormat settings, CABAC                   : Yes\nFormat settings, ReFrames                : 3 frames\nCodec ID                                 : V_MPEG4/ISO/AVC\nDuration                                 : 26mn 6s\nBit rate mode                            : Variable\nBit rate                                 : 3 111 Kbps\nMaximum bit rate                         : 24.0 Mbps\nWidth                                    : 1 440 pixels\nHeight                                   : 1 080 pixels\nDisplay aspect ratio                     : 16:9\nOriginal display aspect ratio            : 4:3\nFrame rate mode                          : Constant\nFrame rate                               : 25.000 fps\nColor space                              : YUV\nChroma subsampling                       : 4:2:0\nBit depth                                : 8 bits\nScan type                                : Progressive\nBits/(Pixel*Frame)                       : 0.080\nStream size                              : 567 MiB (92%)\nWriting library                          : x264 core 93 r1542M 5b86182\nEncoding settings                        : cabac=1 / ref=4 / deblock=1:-1:-1 / analyse=0x3:0x133 / me=umh / subme=7 / psy=1 / psy_rd=1.00:0.15 / \nDefault                                  : Yes\nForced                                   : No\n\nAudio\nID                                       : 2\nFormat                                   : AC-3\nFormat/Info                              : Audio Coding 3\nMode extension                           : CM (complete main)\nFormat settings, Endianness              : Big\nCodec ID                                 : A_AC3\nDuration                                 : 26mn 6s\nBit rate mode                            : Constant\nBit rate                                 : 192 Kbps\nChannel(s)                               : 2 channels\nChannel positions                        : Front: L R\nSampling rate                            : 48.0 KHz\nBit depth                                : 16 bits\nCompression mode                         : Lossy\nStream size                              : 35.9 MiB (6%)\nDefault                                  : Yes\nForced                                   : No\n\nMenu\n00:00:00.000                             : en:Chapter 1n[00:00:00]\n00:02:18.290                             : en:Chapter 2n[00:02:18]\n00:04:36.581                             : en:Chapter 3n[00:04:36]\n00:06:54.872                             : en:Chapter 4n[00:06:54]\n00:09:13.163                             : en:Chapter 5n[00:09:13]\n00:11:31.454                             : en:Chapter 6n[00:11:31]\n00:13:49.745                             : en:Chapter 7n[00:13:49]\n00:16:08.036                             : en:Chapter 8n[00:16:08]\n00:18:26.327                             : en:Chapter 9n[00:18:26]\n00:20:44.618                             : en:Chapter 10n[00:20:44]\n00:23:02.909                             : en:Chapter 11n[00:23:02]\n00:25:19.199                             : en:Chapter 12n[00:25:19]\n\n","torrent":{"xt":"urn:btih:56ffa13bfeadbd3a39321808ea6cb89fdd7c9671","amp;dn":"Republic+of+Telly+S03E01+%5BRTE+Ireland%5D+HDTV+1080i+x264+DeViL303","amp;tr":["udp%3A%2F%2Ftracker.openbittorrent.com%3A80","udp%3A%2F%2Fopen.demonii.com%3A1337","udp%3A%2F%2Ftracker.coppersurfer.tk%3A6969","udp%3A%2F%2Fexodus.desync.com%3A6969"],"infoHash":"56ffa13bfeadbd3a39321808ea6cb89fdd7c9671","infoHashBuffer":{"type":"Buffer","data":[86,255,161,59,254,173,189,58,57,50,24,8,234,108,184,159,221,124,150,113]},"announce":[],"urlList":[]}}